<svg width="17" height="21" viewBox="0 0 17 21" fill="none" xmlns="http://www.w3.org/2000/svg">
<g clip-path="url(#clip0_603_2200)">
<path d="M17 0H8.50417C3.82687 0 0 3.90666 0 8.68145V16.0319H3.70171e-06C0.928599 16.0291 1.81839 15.6513 2.475 14.981C3.13162 14.3107 3.50171 13.4023 3.50443 12.4544V9.41976C3.50443 8.62486 3.6578 7.83775 3.95578 7.10336C4.25376 6.36897 4.69052 5.70169 5.24112 5.13961C5.79172 4.57753 6.44537 4.13167 7.16476 3.82747C7.88416 3.52328 8.65519 3.36671 9.43386 3.36671H13.8477C14.683 3.36422 15.4834 3.02438 16.074 2.42144C16.6647 1.81849 16.9976 1.00144 17 0.148745V0Z" fill="black"/>
<path d="M0 21L8.49583 21C13.1731 21 17 17.0933 17 12.3185L17 0H17C16.0714 0.00277543 15.1816 0.38058 14.525 1.05089C13.8684 1.7212 13.4983 2.62953 13.4956 3.57749V11.5802C13.4956 13.1856 12.8709 14.7252 11.7589 15.8604C10.6469 16.9955 9.13872 17.6333 7.56614 17.6333H3.15225C2.31697 17.6358 1.5166 17.9756 0.925972 18.5786C0.335339 19.1815 0.00244311 19.9986 0 20.8513V21Z" fill="black"/>
</g>
<defs>
<clipPath id="clip0_603_2200">
<rect width="17" height="21" fill="white"/>
</clipPath>
</defs>
</svg>
